# xmcd
#
# Track frame offsets:
#	150
#	18815
#	42739
#	62821
#	83283
#	105841
#	125611
#	148819
#	175834
#	197472
#	215786
#	239777
#
# Disc length: 3433 seconds
#
# Revision: 2
# Processed by: cddbd v1.5.2PL0 Copyright (c) Steve Scherf et al.
# Submitted via: EZCDAudioConverter 8.0.2.1
#
DISCID=a70d670c
DTITLE=Đàm Vĩnh Hưng - Những Tình Khúc Hay Nhất. Xin Lỗi Tình yêu
DYEAR=2005
DGENRE=
TTITLE0=Không phải em
TTITLE1=Xin Lỗi Tình yêu
TTITLE2=Tiếng gió xôn xao
TTITLE3=Về thôi hỡi em
TTITLE4=Chén đắng
TTITLE5=Tình yêu còn đâu
TTITLE6=Giây phút chia xa
TTITLE7=Giọt nước mắt cho đời
TTITLE8=Đừng buồn ta hỡi
TTITLE9=Nếu có yêu tôi
TTITLE10=Đợi chờ
TTITLE11=Đêm cô đơn
EXTD=
EXTT0=
EXTT1=
EXTT2=
EXTT3=
EXTT4=
EXTT5=
EXTT6=
EXTT7=
EXTT8=
EXTT9=
EXTT10=
EXTT11=
PLAYORDER=
